<svg xmlns="http://www.w3.org/2000/svg" xmlns:xlink="http://www.w3.org/1999/xlink" version="1.1" width="1000" height="1000" viewBox="0 0 1000 1000" xml:space="preserve">
<desc>Created with Fabric.js 3.5.0</desc>
<defs>
</defs>
<rect x="0" y="0" width="100%" height="100%" fill="rgba(34,98,139,0)"/>
<g transform="matrix(3.4091 0 0 3.4091 500.0012 500.0012)" id="93652">
<g style="" vector-effect="non-scaling-stroke">
		<g transform="matrix(0.1333 0 0 -0.1333 1.6143 -27.845)">
<path style="stroke: none; stroke-width: 1; stroke-dasharray: none; stroke-linecap: butt; stroke-dashoffset: 0; stroke-linejoin: miter; stroke-miterlimit: 4; is-custom-font: none; font-file-url: none; fill: rgb(0,0,0); fill-rule: nonzero; opacity: 1;" transform=" translate(-1012.3293, -1208.8147)" d="M 695 1285 c -148 -14 -263 -32 -280 -44 c -5 -4 -41 -16 -80 -26 c -38 -10 -101 -34 -139 -54 l -69 -36 l 49 -3 c 46 -3 123 15 189 44 c 48 21 175 43 312 55 c 71 6 136 15 145 20 c 22 11 375 12 382 1 c 3 -5 50 -12 105 -15 c 110 -8 328 -43 345 -56 c 38 -30 271 -71 241 -42 c -24 22 -136 71 -200 88 c -38 10 -72 21 -75 25 c -7 8 -189 35 -335 48 c -145 13 -416 11 -590 -5 z" stroke-linecap="round"/>
</g>
		<g transform="matrix(0.1333 0 0 -0.1333 -114.9006 0.8641)">
<path style="stroke: none; stroke-width: 1; stroke-dasharray: none; stroke-linecap: butt; stroke-dashoffset: 0; stroke-linejoin: miter; stroke-miterlimit: 4; is-custom-font: none; font-file-url: none; fill: rgb(0,0,0); fill-rule: nonzero; opacity: 1;" transform=" translate(-138.2574, -993.5)" d="M 114 1033 c 13 -21 29 -56 36 -77 l 13 -39 l 14 33 c 7 19 11 38 9 44 c -3 7 -5 6 -5 -1 c -2 -25 -17 -13 -30 23 c -11 30 -11 38 0 45 c 9 6 1 9 -24 9 l -37 0 l 24 -37 z" stroke-linecap="round"/>
</g>
		<g transform="matrix(0.1333 0 0 -0.1333 -103.3518 0.6641)">
<path style="stroke: none; stroke-width: 1; stroke-dasharray: none; stroke-linecap: butt; stroke-dashoffset: 0; stroke-linejoin: miter; stroke-miterlimit: 4; is-custom-font: none; font-file-url: none; fill: rgb(0,0,0); fill-rule: nonzero; opacity: 1;" transform=" translate(-224.8699, -995)" d="M 194 1040 c -1 -17 3 -30 7 -30 c 13 0 11 -64 -3 -78 c -9 -9 -3 -12 27 -12 c 36 0 37 1 21 19 c -13 14 -15 29 -11 66 c 4 27 8 52 11 57 c 3 4 -7 8 -23 8 c -24 0 -28 -4 -29 -30 z" stroke-linecap="round"/>
</g>
		<g transform="matrix(0.1333 0 0 -0.1333 -89.4376 0.8525)">
<path style="stroke: none; stroke-width: 1; stroke-dasharray: none; stroke-linecap: butt; stroke-dashoffset: 0; stroke-linejoin: miter; stroke-miterlimit: 4; is-custom-font: none; font-file-url: none; fill: rgb(0,0,0); fill-rule: nonzero; opacity: 1;" transform=" translate(-329.2332, -993.5876)" d="M 287 1053 c -26 -29 -22 -85 8 -111 c 54 -47 100 -17 93 60 c -6 57 -6 57 -49 64 c -26 4 -39 1 -52 -13 z m 73 -28 c 11 -32 -7 -85 -30 -85 c -25 0 -43 35 -35 68 c 11 45 51 56 65 17 z" stroke-linecap="round"/>
</g>
		<g transform="matrix(0.1333 0 0 -0.1333 -60.6771 0.6641)">
<path style="stroke: none; stroke-width: 1; stroke-dasharray: none; stroke-linecap: butt; stroke-dashoffset: 0; stroke-linejoin: miter; stroke-miterlimit: 4; is-custom-font: none; font-file-url: none; fill: rgb(0,0,0); fill-rule: nonzero; opacity: 1;" transform=" translate(-544.954, -995)" d="M 416 1061 c 5 -5 18 -11 29 -13 c 16 -3 21 -12 23 -51 c 2 -27 -2 -55 -9 -63 c -10 -12 -5 -14 27 -14 c 35 1 37 2 21 14 c -14 11 -17 25 -15 63 l 3 48 l 50 0 l 50 0 l 3 -48 c 2 -27 -2 -55 -9 -63 c -10 -12 -5 -14 27 -14 c 35 1 37 2 21 14 c -14 11 -17 25 -15 63 c 3 42 6 48 25 47 c 12 0 24 5 27 13 c 4 10 -22 13 -131 13 c -82 0 -133 -4 -127 -9 z" stroke-linecap="round"/>
</g>
		<g transform="matrix(0.1333 0 0 -0.1333 -32.3722 0.7135)">
<path style="stroke: none; stroke-width: 1; stroke-dasharray: none; stroke-linecap: butt; stroke-dashoffset: 0; stroke-linejoin: miter; stroke-miterlimit: 4; is-custom-font: none; font-file-url: none; fill: rgb(0,0,0); fill-rule: nonzero; opacity: 1;" transform=" translate(-757.223, -994.6299)" d="M 716 1054 c -37 -36 -7 -134 41 -134 c 38 0 58 25 58 75 c 0 35 -5 50 -19 61 c -26 18 -61 18 -80 -2 z m 70 -30 c 10 -37 -7 -79 -31 -79 c -24 0 -48 44 -34 62 c 6 7 8 16 5 22 c -7 10 9 19 36 20 c 11 1 20 -9 24 -25 z" stroke-linecap="round"/>
</g>
		<g transform="matrix(0.1333 0 0 -0.1333 -6.5752 0.8511)">
<path style="stroke: none; stroke-width: 1; stroke-dasharray: none; stroke-linecap: butt; stroke-dashoffset: 0; stroke-linejoin: miter; stroke-miterlimit: 4; is-custom-font: none; font-file-url: none; fill: rgb(0,0,0); fill-rule: nonzero; opacity: 1;" transform=" translate(-950.7009, -993.5972)" d="M 910 1055 c -17 -20 -5 -66 15 -59 c 8 4 22 1 30 -6 c 8 -7 15 -9 15 -4 c 0 5 5 1 11 -9 c 5 -9 7 -22 4 -27 c -9 -14 -49 -12 -63 2 c -10 10 -15 10 -22 -2 c -16 -24 -12 -28 32 -32 c 49 -5 78 14 78 49 c 0 24 -26 43 -59 43 c -24 0 -33 13 -25 34 c 7 18 39 22 49 6 c 7 -12 25 -4 25 11 c 0 15 -76 10 -90 -6 z" stroke-linecap="round"/>
</g>
		<g transform="matrix(0.1333 0 0 -0.1333 11.9112 0.6277)">
<path style="stroke: none; stroke-width: 1; stroke-dasharray: none; stroke-linecap: butt; stroke-dashoffset: 0; stroke-linejoin: miter; stroke-miterlimit: 4; is-custom-font: none; font-file-url: none; fill: rgb(0,0,0); fill-rule: nonzero; opacity: 1;" transform=" translate(-1089.3489, -995.2737)" d="M 1046 1054 c -22 -21 -20 -86 3 -112 c 23 -27 62 -28 86 -2 c 22 24 15 98 -11 117 c -24 18 -59 16 -78 -3 z m 72 -50 c 4 -48 -18 -75 -46 -57 c -21 13 -26 41 -12 77 c 7 20 16 27 33 24 c 18 -2 23 -10 25 -44 z" stroke-linecap="round"/>
</g>
		<g transform="matrix(0.1333 0 0 -0.1333 30.8858 0.6641)">
<path style="stroke: none; stroke-width: 1; stroke-dasharray: none; stroke-linecap: butt; stroke-dashoffset: 0; stroke-linejoin: miter; stroke-miterlimit: 4; is-custom-font: none; font-file-url: none; fill: rgb(0,0,0); fill-rule: nonzero; opacity: 1;" transform=" translate(-1231.6576, -995)" d="M 1175 995 l 0 -75 l 58 0 c 58 0 64 4 47 30 c -7 12 -12 12 -22 2 c -6 -6 -20 -12 -30 -12 c -15 0 -18 9 -18 59 c 0 38 4 61 13 64 c 6 3 -1 6 -18 6 l -30 1 l 0 -75 z" stroke-linecap="round"/>
</g>
		<g transform="matrix(0.1333 0 0 -0.1333 64.7905 0.6641)">
<path style="stroke: none; stroke-width: 1; stroke-dasharray: none; stroke-linecap: butt; stroke-dashoffset: 0; stroke-linejoin: miter; stroke-miterlimit: 4; is-custom-font: none; font-file-url: none; fill: rgb(0,0,0); fill-rule: nonzero; opacity: 1;" transform=" translate(-1485.9712, -995)" d="M 1322 1018 c 17 -103 15 -99 56 -96 l 37 3 l 5 65 c 5 62 6 65 30 62 c 50 -5 53 -9 48 -72 l -4 -60 l 30 0 c 28 1 30 2 13 14 c -14 11 -17 25 -15 63 c 3 42 6 48 26 47 c 12 0 22 3 22 8 c 0 4 9 8 20 8 c 18 0 20 -7 20 -58 c 0 -32 -5 -63 -12 -70 c -9 -9 -3 -12 27 -12 c 32 1 37 3 23 11 c -21 12 -26 107 -6 127 c 9 9 -18 12 -122 12 c -76 0 -129 -4 -122 -9 c 9 -5 12 -25 10 -62 c -3 -50 -5 -54 -28 -54 c -24 0 -25 2 -25 63 c 0 56 -2 62 -21 62 c -20 0 -21 -3 -12 -52 z" stroke-linecap="round"/>
</g>
		<g transform="matrix(0.1333 0 0 -0.1333 96.9611 0.7135)">
<path style="stroke: none; stroke-width: 1; stroke-dasharray: none; stroke-linecap: butt; stroke-dashoffset: 0; stroke-linejoin: miter; stroke-miterlimit: 4; is-custom-font: none; font-file-url: none; fill: rgb(0,0,0); fill-rule: nonzero; opacity: 1;" transform=" translate(-1727.223, -994.6299)" d="M 1686 1054 c -37 -36 -7 -134 41 -134 c 38 0 58 25 58 75 c 0 35 -5 50 -19 61 c -26 18 -61 18 -80 -2 z m 70 -29 c 14 -55 -19 -102 -52 -74 c -17 14 -16 79 1 91 c 21 16 45 8 51 -17 z" stroke-linecap="round"/>
</g>
		<g transform="matrix(0.1333 0 0 -0.1333 115.201 0.6641)">
<path style="stroke: none; stroke-width: 1; stroke-dasharray: none; stroke-linecap: butt; stroke-dashoffset: 0; stroke-linejoin: miter; stroke-miterlimit: 4; is-custom-font: none; font-file-url: none; fill: rgb(0,0,0); fill-rule: nonzero; opacity: 1;" transform=" translate(-1864.0214, -995)" d="M 1845 1019 c 19 -29 38 -62 41 -75 c 3 -13 13 -24 20 -24 c 22 0 13 40 -20 83 c -16 20 -26 43 -22 52 c 4 11 -2 15 -24 15 l -30 0 l 35 -51 z" stroke-linecap="round"/>
</g>
		<g transform="matrix(0.1333 0 0 -0.1333 121.4745 -8.017)">
<path style="stroke: none; stroke-width: 1; stroke-dasharray: none; stroke-linecap: butt; stroke-dashoffset: 0; stroke-linejoin: miter; stroke-miterlimit: 4; is-custom-font: none; font-file-url: none; fill: rgb(0,0,0); fill-rule: nonzero; opacity: 1;" transform=" translate(-1911.064, -1060.125)" d="M 1900 1060 c 19 -13 30 -13 30 0 c 0 6 -10 10 -22 10 c -19 0 -20 -2 -8 -10 z" stroke-linecap="round"/>
</g>
		<g transform="matrix(0.1333 0 0 -0.1333 111.4556 9.0612)">
<path style="stroke: none; stroke-width: 1; stroke-dasharray: none; stroke-linecap: butt; stroke-dashoffset: 0; stroke-linejoin: miter; stroke-miterlimit: 4; is-custom-font: none; font-file-url: none; fill: rgb(0,0,0); fill-rule: nonzero; opacity: 1;" transform=" translate(-1835.9254, -932.0375)" d="M 1810 935 c -11 -13 -7 -15 25 -15 c 41 0 42 1 9 18 c -17 9 -25 8 -34 -3 z" stroke-linecap="round"/>
</g>
		<g transform="matrix(0.1333 0 0 -0.1333 -118.6697 9.3497)">
<path style="stroke: none; stroke-width: 1; stroke-dasharray: none; stroke-linecap: butt; stroke-dashoffset: 0; stroke-linejoin: miter; stroke-miterlimit: 4; is-custom-font: none; font-file-url: none; fill: rgb(0,0,0); fill-rule: nonzero; opacity: 1;" transform=" translate(-109.9839, -929.875)" d="M 85 930 c -4 -6 7 -10 27 -10 c 25 0 29 3 18 10 c -19 13 -37 13 -45 0 z" stroke-linecap="round"/>
</g>
		<g transform="matrix(0.1333 0 0 -0.1333 2.9716 27.9448)">
<path style="stroke: none; stroke-width: 1; stroke-dasharray: none; stroke-linecap: butt; stroke-dashoffset: 0; stroke-linejoin: miter; stroke-miterlimit: 4; is-custom-font: none; font-file-url: none; fill: rgb(0,0,0); fill-rule: nonzero; opacity: 1;" transform=" translate(-1022.5, -790.3931)" d="M 170 866 c 0 -12 97 -54 165 -71 c 39 -10 75 -22 80 -26 c 33 -25 383 -59 600 -59 c 88 0 212 5 275 10 c 136 12 323 39 330 49 c 3 3 28 12 55 19 c 108 28 151 43 175 62 l 25 20 l -64 0 c -59 0 -128 -15 -141 -31 c -8 -11 -255 -49 -356 -56 c -52 -3 -94 -10 -94 -15 c 0 -12 -387 -10 -395 2 c -4 6 -35 11 -68 10 c -105 0 -349 40 -407 68 c -33 15 -180 31 -180 18 z" stroke-linecap="round"/>
</g>
</g>
</g>
</svg>